<?xml version="1.0" encoding="UTF-8"?>
<svg width="4345px" height="898px" viewBox="0 0 4345 898" version="1.1" xmlns="http://www.w3.org/2000/svg" xmlns:xlink="http://www.w3.org/1999/xlink">
    <!-- Generator: Sketch 41.1 (35376) - http://www.bohemiancoding.com/sketch -->
    <title>Logo</title>
    <desc>Created with Sketch.</desc>
    <defs>
        <circle id="path-1" cx="449" cy="449" r="413"></circle>
        <filter x="-50%" y="-50%" width="200%" height="200%" filterUnits="objectBoundingBox" id="filter-2">
            <feMorphology radius="0.5" operator="dilate" in="SourceAlpha" result="shadowSpreadOuter1"></feMorphology>
            <feOffset dx="0" dy="0" in="shadowSpreadOuter1" result="shadowOffsetOuter1"></feOffset>
            <feGaussianBlur stdDeviation="1" in="shadowOffsetOuter1" result="shadowBlurOuter1"></feGaussianBlur>
            <feComposite in="shadowBlurOuter1" in2="SourceAlpha" operator="out" result="shadowBlurOuter1"></feComposite>
            <feColorMatrix values="0 0 0 0 1   0 0 0 0 1   0 0 0 0 1  0 0 0 0.5 0" type="matrix" in="shadowBlurOuter1"></feColorMatrix>
        </filter>
        <filter x="-50%" y="-50%" width="200%" height="200%" filterUnits="objectBoundingBox" id="filter-3">
            <feGaussianBlur stdDeviation="1.5" in="SourceAlpha" result="shadowBlurInner1"></feGaussianBlur>
            <feOffset dx="0" dy="0" in="shadowBlurInner1" result="shadowOffsetInner1"></feOffset>
            <feComposite in="shadowOffsetInner1" in2="SourceAlpha" operator="arithmetic" k2="-1" k3="1" result="shadowInnerInner1"></feComposite>
            <feColorMatrix values="0 0 0 0 0   0 0 0 0 0   0 0 0 0 0  0 0 0 0.5 0" type="matrix" in="shadowInnerInner1"></feColorMatrix>
        </filter>
        <linearGradient x1="50%" y1="0%" x2="50%" y2="100%" id="linearGradient-4">
            <stop stop-color="#E10098" offset="0%"></stop>
            <stop stop-color="#E10098" offset="100%"></stop>
        </linearGradient>
    </defs>
    <g id="Logo" stroke="none" stroke-width="1" fill="none" fill-rule="evenodd">
        <g>
            <g id="Group">
                <g id="Icon">
                    <circle id="Base" fill="#E10098" cx="449" cy="449" r="449"></circle>
                    <circle id="Background" fill="#FFFFFF" cx="449" cy="449" r="413"></circle>
                    <g id="Inner-Circle">
                        <use fill="black" fill-opacity="1" filter="url(#filter-2)" xlink:href="#path-1"></use>
                        <use fill-opacity="0" fill="#000000" fill-rule="evenodd" xlink:href="#path-1"></use>
                        <use fill="black" fill-opacity="1" filter="url(#filter-3)" xlink:href="#path-1"></use>
                    </g>
                    <path d="M500.419566,219.393529 L623.091217,290.220117 C626.543371,286.563823 630.575105,283.335363 635.148364,280.678156 C660.58791,266.049363 693.034756,274.735209 707.81102,300.183213 C722.43495,325.631218 713.751992,358.088853 688.312445,372.870029 C683.770663,375.481743 679.000675,377.35033 674.145513,378.513077 L674.145513,520.256497 C678.948109,521.421698 683.665839,523.27843 688.160113,525.862824 C713.751992,540.644001 722.43495,573.101635 707.658687,598.54964 C693.034756,623.997645 660.435578,632.683491 634.996031,618.054698 C629.933579,615.143577 625.534699,611.520387 621.851012,607.383269 L499.929018,677.77703 C501.674452,683.048489 502.618992,688.687742 502.618992,694.551095 C502.618992,723.808681 478.855105,747.732854 449.454911,747.732854 C420.054717,747.732854 396.290829,723.961065 396.290829,694.551095 C396.290829,689.320098 397.042621,684.26747 398.444201,679.495246 L275.80518,608.687497 C272.389933,612.271953 268.414049,615.439906 263.91379,618.054698 C238.321911,632.683491 205.875065,623.997645 191.251134,598.54964 C176.627203,573.101635 185.310162,540.644001 210.749708,525.862824 C215.247651,523.276321 219.964652,521.418667 224.764309,520.253645 L224.764309,378.513077 C219.909146,377.35033 215.139159,375.481743 210.597376,372.870029 C185.15783,358.241236 176.474871,325.631218 191.098802,300.183213 C205.722732,274.735209 238.321911,266.049363 263.761457,280.678156 C268.311129,283.321658 272.324847,286.530535 275.765143,290.163578 L398.468144,219.318889 C397.051184,214.522769 396.290829,209.442464 396.290829,204.181758 C396.290829,174.771789 420.054717,151 449.454911,151 C478.855105,151 502.618992,174.771789 502.618992,204.181758 C502.618992,209.469762 501.850726,214.575489 500.419566,219.393529 Z M487.63425,241.220146 L610.598079,312.215428 C606.794171,325.570671 608.188025,340.380294 615.64979,353.364972 C623.13418,366.389021 635.326819,375.022564 648.858299,378.387222 L648.858299,520.30799 C648.177477,520.475166 647.500007,520.655669 646.826317,520.849387 L486.199933,242.64449 C486.686986,242.178804 487.165184,241.703931 487.63425,241.220146 Z M412.746662,242.679617 L252.12404,520.877997 C251.436964,520.678724 250.745975,520.493243 250.051522,520.321674 L250.051522,378.387222 C263.583002,375.022564 275.775642,366.389021 283.260031,353.364972 C290.737325,340.353271 292.121426,325.509022 288.287926,312.132065 L411.215267,241.157849 C411.715415,241.675369 412.225991,242.182737 412.746662,242.679617 Z M464.283487,255.274222 L624.870788,533.411429 C621.271532,536.841466 618.099872,540.839259 615.497457,545.367882 C612.913922,549.86365 611.057807,554.582948 609.892993,559.387142 L289.019679,559.387142 C287.855044,554.585889 285.998008,549.86732 283.412364,545.367882 C280.798883,540.866888 277.632613,536.890266 274.050096,533.474271 L434.666916,255.285938 C439.360094,256.638816 444.321589,257.363517 449.454911,257.363517 C454.603031,257.363517 459.578332,256.634632 464.283487,255.274222 Z M488.766338,658.717081 L610.930384,588.183567 C610.562292,587.028137 610.233462,585.860464 609.944469,584.682763 L288.951673,584.682763 C288.780706,585.375238 288.595921,586.064269 288.397434,586.749413 L411.162343,657.629845 C420.827119,647.600747 434.402279,641.369337 449.454911,641.369337 C465.044292,641.369337 479.048956,648.053072 488.766338,658.717081 Z" id="Combined-Shape" fill="url(#linearGradient-4)"></path>
                </g>
            </g>
            <path d="M1467.09359,545.748836 L1480.67416,594.095637 L1513.26751,594.095637 L1513.26751,389.843983 L1343.23887,389.843983 L1343.23887,433.301781 L1467.09359,433.301781 C1467.81789,451.047138 1465.46395,467.615258 1460.0317,483.006639 C1454.59945,498.39802 1446.54173,511.797374 1435.8583,523.205103 C1425.17487,534.612832 1412.04713,543.575914 1396.47467,550.094616 C1380.90222,556.613318 1362.97605,559.872621 1342.69565,559.872621 C1320.96664,559.872621 1301.8635,555.61742 1285.38567,547.106892 C1268.90784,538.596364 1255.05581,527.188806 1243.82915,512.883876 C1232.6025,498.578945 1224.0921,482.101361 1218.2977,463.450629 C1212.50329,444.799897 1209.60614,425.33462 1209.60614,405.054212 C1209.60614,384.411654 1212.14115,364.222087 1217.21125,344.484905 C1222.28135,324.747723 1230.158,307.183705 1240.84143,291.792324 C1251.52486,276.400943 1265.28636,263.997487 1282.12634,254.581584 C1298.96632,245.16568 1319.15589,240.457799 1342.69565,240.457799 C1357.18165,240.457799 1370.85261,242.177986 1383.70894,245.618413 C1396.56527,249.058839 1408.06337,254.219401 1418.20357,261.100253 C1428.34377,267.981106 1436.85418,276.763115 1443.73503,287.446544 C1450.61588,298.129973 1455.32376,310.895574 1457.85881,325.743729 L1509.46495,325.743729 C1505.84345,302.928271 1499.05323,283.462993 1489.09411,267.347312 C1479.13498,251.231631 1466.82206,237.922813 1452.15498,227.420459 C1437.4879,216.918105 1420.82924,209.22253 1402.17851,204.333504 C1383.52778,199.444477 1363.70035,197 1342.69565,197 C1311.91288,197 1285.02364,202.703779 1262.02711,214.111508 C1239.03057,225.519238 1219.8369,240.819851 1204.44552,260.013808 C1189.05414,279.207766 1177.46551,301.570201 1169.67928,327.101785 C1161.89306,352.63337 1158,379.522614 1158,407.770325 C1158,433.120834 1162.16466,457.565601 1170.49412,481.10536 C1178.82357,504.645119 1190.95542,525.468439 1206.89002,543.575946 C1222.82463,561.683453 1242.19937,576.078705 1265.01483,586.762134 C1287.83029,597.445563 1313.72363,602.787197 1342.69565,602.787197 C1365.5111,602.787197 1388.14515,598.350925 1410.59846,589.478246 C1433.05176,580.605568 1451.88329,566.029244 1467.09359,545.748836 Z M1580.08387,313.249612 L1580.08387,594.095637 L1626.25778,594.095637 L1626.25778,469.154466 C1626.25778,451.046959 1628.06851,435.022056 1631.69001,421.079276 C1635.31151,407.136495 1641.10582,395.276256 1649.07313,385.498203 C1657.04043,375.720149 1667.54263,368.296183 1680.58003,363.226081 C1693.61744,358.155979 1709.37073,355.620966 1727.84039,355.620966 L1727.84039,306.730942 C1702.85203,306.006642 1682.20978,311.076668 1665.91302,321.941172 C1649.61627,332.805676 1635.85477,349.645405 1624.62812,372.460863 L1623.54167,372.460863 L1623.54167,313.249612 L1580.08387,313.249612 Z M2011.40253,593.009192 C2003.43522,597.717144 1992.38981,600.071085 1978.26595,600.071085 C1966.315,600.071085 1956.8087,596.721246 1949.74677,590.021469 C1942.68485,583.321691 1939.15394,572.366814 1939.15394,557.156508 C1926.47868,572.366814 1911.72128,583.321691 1894.8813,590.021469 C1878.04132,596.721246 1859.84355,600.071085 1840.28744,600.071085 C1827.61219,600.071085 1815.57088,598.622506 1804.16315,595.725305 C1792.75542,592.828104 1782.88697,588.301295 1774.55752,582.144743 C1766.22807,575.98819 1759.61893,567.930471 1754.7299,557.971342 C1749.84087,548.012213 1747.3964,535.970902 1747.3964,521.847047 C1747.3964,505.912441 1750.11248,492.875231 1755.54473,482.735028 C1760.97699,472.594824 1768.12934,464.356032 1777.00202,458.018405 C1785.8747,451.680777 1796.01475,446.88236 1807.42248,443.623009 C1818.83021,440.363657 1830.50938,437.647572 1842.46033,435.474671 C1855.13559,432.93962 1867.1769,431.038361 1878.58463,429.770835 C1889.99236,428.50331 1900.04187,426.692586 1908.73348,424.33861 C1917.42508,421.984635 1924.30583,418.54426 1929.37593,414.017383 C1934.44603,409.490507 1936.98105,402.881366 1936.98105,394.189762 C1936.98105,384.049559 1935.07979,375.901303 1931.27721,369.744751 C1927.47463,363.588198 1922.58568,358.880317 1916.6102,355.620966 C1910.63472,352.361615 1903.93505,350.188747 1896.51097,349.102296 C1889.08689,348.015846 1881.75346,347.472629 1874.51046,347.472629 C1854.95435,347.472629 1838.65784,351.184612 1825.62044,358.60869 C1812.58303,366.032767 1805.52121,380.065875 1804.43476,400.708432 L1758.26085,400.708432 C1758.98515,383.325226 1762.60659,368.658365 1769.1253,356.707411 C1775.644,344.756456 1784.33547,335.069086 1795.19998,327.645008 C1806.06448,320.22093 1818.46794,314.879296 1832.41072,311.619945 C1846.3535,308.360593 1861.29197,306.730942 1877.22657,306.730942 C1889.90183,306.730942 1902.48635,307.636304 1914.98053,309.447055 C1927.47471,311.257805 1938.79174,314.969788 1948.93194,320.583116 C1959.07214,326.196443 1967.2204,334.07309 1973.37695,344.213294 C1979.5335,354.353498 1982.61173,367.571779 1982.61173,383.868535 L1982.61173,528.365717 C1982.61173,539.230221 1983.24549,547.197404 1984.51301,552.267506 C1985.78054,557.337608 1990.03574,559.872621 1997.27874,559.872621 C2001.26239,559.872621 2005.97027,558.967259 2011.40253,557.156508 L2011.40253,593.009192 Z M1936.43782,449.055234 C1930.64342,453.401035 1923.03838,456.569801 1913.62248,458.561627 C1904.20657,460.553453 1894.33813,462.183104 1884.01685,463.450629 C1873.69557,464.718155 1863.28391,466.166734 1852.78156,467.796409 C1842.27921,469.426085 1832.86344,472.051634 1824.53399,475.673135 C1816.20454,479.294637 1809.41432,484.455199 1804.16315,491.154976 C1798.91197,497.854754 1796.28642,506.998907 1796.28642,518.587712 C1796.28642,526.192865 1797.82554,532.620933 1800.90381,537.87211 C1803.98209,543.123287 1807.96568,547.378487 1812.85471,550.637838 C1817.74373,553.89719 1823.44751,556.25113 1829.96622,557.699731 C1836.48492,559.148331 1843.36567,559.872621 1850.60867,559.872621 C1865.81898,559.872621 1878.85618,557.790289 1889.72069,553.625562 C1900.58519,549.460836 1909.45774,544.209737 1916.33859,537.87211 C1923.21944,531.534483 1928.28947,524.653733 1931.54882,517.229656 C1934.80817,509.805578 1936.43782,502.834292 1936.43782,496.31559 L1936.43782,449.055234 Z M2055.94677,313.249612 L2055.94677,701.110467 L2102.12068,701.110467 L2102.12068,556.613286 L2103.20713,556.613286 C2108.27723,564.942739 2114.52422,571.914024 2121.9483,577.527352 C2129.37238,583.140679 2137.24903,587.576951 2145.57848,590.836302 C2153.90793,594.095654 2162.3278,596.449594 2170.83833,597.898195 C2179.34885,599.346795 2187.04443,600.071085 2193.92528,600.071085 C2215.29214,600.071085 2234.03313,596.268565 2250.14881,588.663412 C2266.26449,581.05826 2279.66384,570.646599 2290.34727,557.42812 C2301.0307,544.20964 2308.99788,528.727954 2314.24906,510.982597 C2319.50024,493.23724 2322.12579,474.405716 2322.12579,454.487458 C2322.12579,434.569201 2319.4097,415.737676 2313.97745,397.99232 C2308.5452,380.246963 2300.48748,364.584205 2289.80405,351.003575 C2279.12062,337.422945 2265.72127,326.64914 2249.60559,318.681837 C2233.4899,310.714534 2214.56784,306.730942 2192.83884,306.730942 C2173.28273,306.730942 2155.35657,310.261853 2139.05981,317.323781 C2122.76305,324.385708 2110.81228,335.70273 2103.20713,351.275186 L2102.12068,351.275186 L2102.12068,313.249612 L2055.94677,313.249612 Z M2273.23576,451.228123 C2273.23576,464.989829 2271.78719,478.389183 2268.88998,491.426587 C2265.99278,504.463992 2261.2849,516.052623 2254.7662,526.192827 C2248.2475,536.33303 2239.64656,544.481286 2228.96313,550.637838 C2218.2797,556.794391 2204.97088,559.872621 2189.03628,559.872621 C2173.10167,559.872621 2159.52125,556.884927 2148.29459,550.90945 C2137.06794,544.933972 2127.92378,537.057325 2120.86186,527.279272 C2113.79993,517.501218 2108.63937,506.184196 2105.38002,493.327866 C2102.12066,480.471536 2100.49101,467.162719 2100.49101,453.401013 C2100.49101,440.363609 2102.03013,427.507472 2105.1084,414.832217 C2108.18668,402.156962 2113.16617,390.83994 2120.04702,380.880812 C2126.92788,370.921683 2135.80042,362.863963 2146.66492,356.707411 C2157.52943,350.550859 2170.74771,347.472629 2186.32017,347.472629 C2201.16832,347.472629 2214.11499,350.369786 2225.16057,356.164188 C2236.20615,361.958591 2245.25977,369.744702 2252.3217,379.522755 C2259.38363,389.300809 2264.63472,400.436759 2268.07515,412.930938 C2271.51558,425.425118 2273.23576,438.190719 2273.23576,451.228123 Z M2376.44804,206.234782 L2376.44804,594.095637 L2422.62195,594.095637 L2422.62195,435.474671 C2422.62195,422.799417 2424.34213,411.12025 2427.78256,400.436821 C2431.22299,389.753392 2436.38355,380.428166 2443.2644,372.460863 C2450.14525,364.49356 2458.74619,358.3371 2469.06747,353.991298 C2479.38875,349.645497 2491.61113,347.472629 2505.73499,347.472629 C2523.48034,347.472629 2537.42292,352.542654 2547.56312,362.682858 C2557.70332,372.823062 2562.77335,386.584561 2562.77335,403.967767 L2562.77335,594.095637 L2608.94726,594.095637 L2608.94726,409.399992 C2608.94726,394.189686 2607.40815,380.337652 2604.32987,367.843472 C2601.25159,355.349292 2595.90996,344.575487 2588.30481,335.521734 C2580.69965,326.467981 2570.74067,319.406159 2558.42757,314.336057 C2546.11446,309.265955 2530.72331,306.730942 2512.25366,306.730942 C2503.9242,306.730942 2495.32327,307.636304 2486.45059,309.447055 C2477.57791,311.257805 2469.06751,314.064427 2460.91913,317.867003 C2452.77075,321.66958 2445.43732,326.558533 2438.91862,332.53401 C2432.39992,338.509488 2427.32989,345.842918 2423.70839,354.534521 L2422.62195,354.534521 L2422.62195,206.234782 L2376.44804,206.234782 Z M2888.16362,483.27825 L2861.00249,514.785154 L2903.91707,549.008171 C2886.53386,556.251174 2868.6077,559.872621 2850.13804,559.872621 C2826.59829,559.872621 2806.31818,555.255276 2789.29713,546.020447 C2772.27607,536.785619 2758.3335,524.563235 2747.46899,509.35293 C2736.60449,494.142624 2728.63731,477.031287 2723.5672,458.018405 C2718.4971,439.005522 2715.96209,419.721317 2715.96209,400.16521 C2715.96209,380.609103 2718.4971,361.324897 2723.5672,342.312015 C2728.63731,323.299133 2736.60449,306.187796 2747.46899,290.97749 C2758.3335,275.767184 2772.27607,263.544801 2789.29713,254.309972 C2806.31818,245.075144 2826.59829,240.457799 2850.13804,240.457799 C2873.6778,240.457799 2893.95791,245.075144 2910.97896,254.309972 C2928.00002,263.544801 2941.94259,275.767184 2952.80709,290.97749 C2963.6716,306.187796 2971.63878,323.299133 2976.70888,342.312015 C2981.77899,361.324897 2984.314,380.609103 2984.314,400.16521 C2984.314,424.067119 2980.69255,446.972771 2973.44955,468.882854 C2966.20655,490.792937 2954.98006,509.352853 2939.76975,524.563159 L2888.16362,483.27825 Z M3002.24034,627.232209 L3028.31502,594.63886 L2977.25211,554.440396 C2996.80821,534.884289 3011.47507,511.707028 3021.25313,484.907918 C3031.03118,458.108808 3035.92013,429.861521 3035.92013,400.16521 C3035.92013,373.72825 3032.02708,348.287585 3024.24085,323.842451 C3016.45462,299.397316 3004.77546,277.75917 2989.203,258.927363 C2973.63054,240.095556 2954.2558,225.066551 2931.07819,213.839897 C2907.90059,202.613243 2880.92081,197 2850.13804,197 C2819.35528,197 2792.3755,202.613243 2769.19789,213.839897 C2746.02029,225.066551 2726.64554,240.095556 2711.07309,258.927363 C2695.50063,277.75917 2683.82147,299.397316 2676.03524,323.842451 C2668.24901,348.287585 2664.35595,373.72825 2664.35595,400.16521 C2664.35595,426.60217 2668.24901,452.042835 2676.03524,476.487969 C2683.82147,500.933103 2695.50063,522.571249 2711.07309,541.403056 C2726.64554,560.234863 2746.02029,575.173332 2769.19789,586.218911 C2792.3755,597.26449 2819.35528,602.787197 2850.13804,602.787197 C2885.99091,602.787197 2916.95428,595.182158 2943.02909,579.971853 L3002.24034,627.232209 Z M3098.93394,206.234782 L3098.93394,594.095637 L3355.87818,594.095637 L3355.87818,550.637838 L3150.54008,550.637838 L3150.54008,206.234782 L3098.93394,206.234782 Z M3554.15439,206.234782 L3554.15439,594.095637 L3605.76052,594.095637 L3605.76052,206.234782 L3554.15439,206.234782 Z M3744.28226,550.637838 L3744.28226,249.692581 L3831.19785,249.692581 C3855.09976,249.692581 3875.19879,253.04242 3891.49555,259.742197 C3907.79231,266.441975 3921.10112,276.219882 3931.4224,289.076211 C3941.74368,301.932541 3949.16765,317.504763 3953.69452,335.793345 C3958.2214,354.081927 3960.48481,374.814711 3960.48481,397.99232 C3960.48481,421.894229 3958.04033,442.264868 3953.1513,459.10485 C3948.26228,475.944831 3942.01528,489.977938 3934.41013,501.204592 C3926.80497,512.431246 3918.20404,521.303792 3908.60706,527.822494 C3899.01008,534.341196 3889.32271,539.320686 3879.54466,542.761112 C3869.7666,546.201539 3860.53191,548.374407 3851.84031,549.279782 C3843.14871,550.185158 3835.90581,550.637838 3830.11141,550.637838 L3744.28226,550.637838 Z M3692.67612,206.234782 L3692.67612,594.095637 L3825.76563,594.095637 C3857.99699,594.095637 3885.88213,589.568829 3909.42189,580.515075 C3932.96165,571.461322 3952.33639,558.333576 3967.5467,541.131445 C3982.757,523.929314 3993.98349,502.743848 4001.22649,477.574414 C4008.46949,452.40498 4012.09094,423.52394 4012.09094,390.930428 C4012.09094,328.640604 3995.9755,282.286082 3963.74414,251.865471 C3931.51278,221.44486 3885.5204,206.234782 3825.76563,206.234782 L3692.67612,206.234782 Z M4075.10475,206.234782 L4075.10475,594.095637 L4344.5431,594.095637 L4344.5431,550.637838 L4126.71089,550.637838 L4126.71089,416.461884 L4328.24643,416.461884 L4328.24643,373.004085 L4126.71089,373.004085 L4126.71089,249.692581 L4342.91344,249.692581 L4342.91344,206.234782 L4075.10475,206.234782 Z" id="GraphQL-IDE" fill="#E10098"></path>
        </g>
    </g>
</svg>