<?xml version="1.0" encoding="UTF-8"?>
<svg width="898px" height="898px" viewBox="0 0 898 898" version="1.1" xmlns="http://www.w3.org/2000/svg" xmlns:xlink="http://www.w3.org/1999/xlink">
    <!-- Generator: Sketch 41.1 (35376) - http://www.bohemiancoding.com/sketch -->
    <title>Group</title>
    <desc>Created with Sketch.</desc>
    <defs>
        <circle id="path-1" cx="449" cy="449" r="413"></circle>
        <filter x="-50%" y="-50%" width="200%" height="200%" filterUnits="objectBoundingBox" id="filter-2">
            <feMorphology radius="0.5" operator="dilate" in="SourceAlpha" result="shadowSpreadOuter1"></feMorphology>
            <feOffset dx="0" dy="0" in="shadowSpreadOuter1" result="shadowOffsetOuter1"></feOffset>
            <feGaussianBlur stdDeviation="1" in="shadowOffsetOuter1" result="shadowBlurOuter1"></feGaussianBlur>
            <feComposite in="shadowBlurOuter1" in2="SourceAlpha" operator="out" result="shadowBlurOuter1"></feComposite>
            <feColorMatrix values="0 0 0 0 1   0 0 0 0 1   0 0 0 0 1  0 0 0 0.5 0" type="matrix" in="shadowBlurOuter1"></feColorMatrix>
        </filter>
        <filter x="-50%" y="-50%" width="200%" height="200%" filterUnits="objectBoundingBox" id="filter-3">
            <feGaussianBlur stdDeviation="1.5" in="SourceAlpha" result="shadowBlurInner1"></feGaussianBlur>
            <feOffset dx="0" dy="0" in="shadowBlurInner1" result="shadowOffsetInner1"></feOffset>
            <feComposite in="shadowOffsetInner1" in2="SourceAlpha" operator="arithmetic" k2="-1" k3="1" result="shadowInnerInner1"></feComposite>
            <feColorMatrix values="0 0 0 0 0   0 0 0 0 0   0 0 0 0 0  0 0 0 0.5 0" type="matrix" in="shadowInnerInner1"></feColorMatrix>
        </filter>
        <linearGradient x1="50%" y1="0%" x2="50%" y2="100%" id="linearGradient-4">
            <stop stop-color="#E10098" offset="0%"></stop>
            <stop stop-color="#E10098" offset="100%"></stop>
        </linearGradient>
    </defs>
    <g id="Logo" stroke="none" stroke-width="1" fill="none" fill-rule="evenodd">
        <g id="Group">
            <g>
                <g id="Icon">
                    <circle id="Base" fill="#E10098" cx="449" cy="449" r="449"></circle>
                    <circle id="Background" fill="#FFFFFF" cx="449" cy="449" r="413"></circle>
                    <g id="Inner-Circle">
                        <use fill="black" fill-opacity="1" filter="url(#filter-2)" xlink:href="#path-1"></use>
                        <use fill-opacity="0" fill="#000000" fill-rule="evenodd" xlink:href="#path-1"></use>
                        <use fill="black" fill-opacity="1" filter="url(#filter-3)" xlink:href="#path-1"></use>
                    </g>
                    <path d="M500.419566,219.393529 L623.091217,290.220117 C626.543371,286.563823 630.575105,283.335363 635.148364,280.678156 C660.58791,266.049363 693.034756,274.735209 707.81102,300.183213 C722.43495,325.631218 713.751992,358.088853 688.312445,372.870029 C683.770663,375.481743 679.000675,377.35033 674.145513,378.513077 L674.145513,520.256497 C678.948109,521.421698 683.665839,523.27843 688.160113,525.862824 C713.751992,540.644001 722.43495,573.101635 707.658687,598.54964 C693.034756,623.997645 660.435578,632.683491 634.996031,618.054698 C629.933579,615.143577 625.534699,611.520387 621.851012,607.383269 L499.929018,677.77703 C501.674452,683.048489 502.618992,688.687742 502.618992,694.551095 C502.618992,723.808681 478.855105,747.732854 449.454911,747.732854 C420.054717,747.732854 396.290829,723.961065 396.290829,694.551095 C396.290829,689.320098 397.042621,684.26747 398.444201,679.495246 L275.80518,608.687497 C272.389933,612.271953 268.414049,615.439906 263.91379,618.054698 C238.321911,632.683491 205.875065,623.997645 191.251134,598.54964 C176.627203,573.101635 185.310162,540.644001 210.749708,525.862824 C215.247651,523.276321 219.964652,521.418667 224.764309,520.253645 L224.764309,378.513077 C219.909146,377.35033 215.139159,375.481743 210.597376,372.870029 C185.15783,358.241236 176.474871,325.631218 191.098802,300.183213 C205.722732,274.735209 238.321911,266.049363 263.761457,280.678156 C268.311129,283.321658 272.324847,286.530535 275.765143,290.163578 L398.468144,219.318889 C397.051184,214.522769 396.290829,209.442464 396.290829,204.181758 C396.290829,174.771789 420.054717,151 449.454911,151 C478.855105,151 502.618992,174.771789 502.618992,204.181758 C502.618992,209.469762 501.850726,214.575489 500.419566,219.393529 Z M487.63425,241.220146 L610.598079,312.215428 C606.794171,325.570671 608.188025,340.380294 615.64979,353.364972 C623.13418,366.389021 635.326819,375.022564 648.858299,378.387222 L648.858299,520.30799 C648.177477,520.475166 647.500007,520.655669 646.826317,520.849387 L486.199933,242.64449 C486.686986,242.178804 487.165184,241.703931 487.63425,241.220146 Z M412.746662,242.679617 L252.12404,520.877997 C251.436964,520.678724 250.745975,520.493243 250.051522,520.321674 L250.051522,378.387222 C263.583002,375.022564 275.775642,366.389021 283.260031,353.364972 C290.737325,340.353271 292.121426,325.509022 288.287926,312.132065 L411.215267,241.157849 C411.715415,241.675369 412.225991,242.182737 412.746662,242.679617 Z M464.283487,255.274222 L624.870788,533.411429 C621.271532,536.841466 618.099872,540.839259 615.497457,545.367882 C612.913922,549.86365 611.057807,554.582948 609.892993,559.387142 L289.019679,559.387142 C287.855044,554.585889 285.998008,549.86732 283.412364,545.367882 C280.798883,540.866888 277.632613,536.890266 274.050096,533.474271 L434.666916,255.285938 C439.360094,256.638816 444.321589,257.363517 449.454911,257.363517 C454.603031,257.363517 459.578332,256.634632 464.283487,255.274222 Z M488.766338,658.717081 L610.930384,588.183567 C610.562292,587.028137 610.233462,585.860464 609.944469,584.682763 L288.951673,584.682763 C288.780706,585.375238 288.595921,586.064269 288.397434,586.749413 L411.162343,657.629845 C420.827119,647.600747 434.402279,641.369337 449.454911,641.369337 C465.044292,641.369337 479.048956,648.053072 488.766338,658.717081 Z" id="Combined-Shape" fill="url(#linearGradient-4)"></path>
                </g>
            </g>
        </g>
    </g>
</svg>